# xmcd
#
# Track frame offsets: 
#        150
#        8959
#        40343
#        71265
#        101163
#        128128
#        156377
#        194888
#        239231
#        268861
#        301359
#
# Disc length: 4439 seconds
#
# Revision: 14
# Processed by: cddbd v1.5.2PL0 Copyright (c) Steve Scherf et al.
# Submitted via: ExactAudioCopyFreeDBPlugin 1.0
#
DISCID=a711550b
DTITLE=Andreas Fröhlich - Eragon [CD10)
DYEAR=2005
DGENRE=Hörbuch
TTITLE0=Die Jünger des Helgrind (Teil 3)
TTITLE1=Die Rache der Ra'zac
TTITLE2=Murtagh (Teil 1)
TTITLE3=Murtagh (Teil 2)
TTITLE4=Das Vermächtnis des Drachenreiters (Teil 1)
TTITLE5=Das Vermächtnis des Drachenreiters (Teil 2)
TTITLE6=Der Diamantgurt (Teil 1)
TTITLE7=Der Diamantgurt (Teil 2)
TTITLE8=Gefangen in Gil'ead (Teil 1)
TTITLE9=Gefangen in Gil'ead (Teil 2)
TTITLE10=Gefangen in Gil'ead (Teil 3)
EXTD=
EXTT0=
EXTT1=
EXTT2=
EXTT3=
EXTT4=
EXTT5=
EXTT6=
EXTT7=
EXTT8=
EXTT9=
EXTT10=
PLAYORDER=
